<svg xmlns="http://www.w3.org/2000/svg" viewBox="0 0 705 322"><defs><style>.cls-1{fill:#ffffc6;}.cls-2{fill:#bfbfbf;}.cls-3{fill:#ffbe88;}.cls-4,.cls-8{fill:#004098;}.cls-5,.cls-6,.cls-9{fill:#fff;}.cls-5{stroke:#004098;stroke-miterlimit:10;}.cls-6,.cls-7{font-size:19px;font-family:FrutigerLTStd-Bold, Frutiger LT Std;font-weight:700;}.cls-11,.cls-7{fill:#1d386b;}.cls-11,.cls-8,.cls-9{font-size:12px;font-family:HiraginoSansPr6N-W3-83pv-RKSJ-H, Hiragino Sans Pr6N;}.cls-10{letter-spacing:0.25em;}</style></defs><title>アセット 7</title><g id="レイヤー_2" data-name="レイヤー 2"><g id="header"><rect class="cls-1" width="487" height="322"/><rect class="cls-1" x="509" width="196" height="322"/><circle class="cls-2" cx="130" cy="143" r="112"/><circle class="cls-3" cx="361" cy="143" r="112"/><circle class="cls-4" cx="130" cy="177" r="78"/><circle class="cls-4" cx="607" cy="177" r="78"/><circle class="cls-5" cx="361" cy="177" r="78"/><text class="cls-6" transform="translate(113.64 64)">NIG</text><text class="cls-6" transform="translate(106.78 159)">DDBJ</text><text class="cls-6" transform="translate(581.67 159)">NBDC</text><text class="cls-7" transform="translate(332.5 159)">DBCLS</text><text class="cls-8" transform="translate(217.34 261)">協力・連携</text><text class="cls-6" transform="translate(348.86 64)">DS</text><text class="cls-9" transform="translate(82 81)">国立遺伝学研究所</text><text class="cls-9" transform="translate(88.08 176)">DDB<tspan class="cls-10" x="26.74" y="0">J</tspan><tspan x="35.83" y="0">センター</tspan></text><text class="cls-9" transform="translate(559 176)">バイオサイエンス<tspan x="-12" y="13">データベースセンター</tspan></text><text class="cls-9" transform="translate(313 81)">データサイエンス<tspan x="0" y="13">共同利用基盤施設</tspan></text><text class="cls-11" transform="translate(313 174)">ライフサイエンス<tspan x="-24" y="13">総合データベースセンター</tspan></text><text class="cls-7" transform="translate(228.88 292)">ROIS</text><text class="cls-11" transform="translate(184 307)">情報・システム研究機構</text><text class="cls-7" transform="translate(593.74 292)">JST</text><text class="cls-11" transform="translate(560 307)">科学技術振興機構</text><rect class="cls-4" x="324" y="203.5" width="35" height="23.5" rx="6" ry="6"/><text class="cls-9" transform="translate(329.5 219)">三島</text><rect class="cls-4" x="363" y="203.5" width="35" height="23.5" rx="6" ry="6"/><text class="cls-9" transform="translate(374.5 219)">柏</text><rect class="cls-4" x="213" y="236" width="72" height="4"/><polygon class="cls-4" points="203.64 238 215.18 244.66 215.18 231.34 203.64 238"/><polygon class="cls-4" points="291.03 238 279.49 231.34 279.49 244.66 291.03 238"/><text class="cls-8" transform="translate(474.34 261)">共同研究</text><rect class="cls-4" x="464" y="236" width="72" height="4"/><polygon class="cls-4" points="454.64 238 466.18 244.66 466.18 231.34 454.64 238"/><polygon class="cls-4" points="542.03 238 530.49 231.34 530.49 244.66 542.03 238"/></g></g></svg>