<svg xmlns="http://www.w3.org/2000/svg" viewBox="0 0 705 322"><defs><style>.cls-1{fill:#e6dd75;opacity:0.3;}.cls-2{fill:#005198;}.cls-2,.cls-6{opacity:0.4;}.cls-3{fill:#004098;}.cls-4{font-size:26px;}.cls-11,.cls-12,.cls-17,.cls-19,.cls-4,.cls-5{fill:#fff;}.cls-17,.cls-4{font-family:FrutigerLTStd-Light, Frutiger LT Std;}.cls-7{fill:#7e8060;opacity:0.5;}.cls-13,.cls-14,.cls-8{fill:#807360;}.cls-9{opacity:0.9;}.cls-10{fill:#938878;}.cls-11,.cls-12,.cls-14,.cls-15,.cls-19,.cls-20{font-size:12px;}.cls-11,.cls-12,.cls-15,.cls-19,.cls-20{font-family:HiraginoSansPr6N-W6-83pv-RKSJ-H, Hiragino Sans Pr6N;}.cls-12,.cls-20{letter-spacing:-0.02em;}.cls-13{font-size:19px;font-family:FrutigerLTStd-Bold, Frutiger LT Std;font-weight:700;}.cls-14{font-family:HiraginoSansPr6N-W3-83pv-RKSJ-H, Hiragino Sans Pr6N;}.cls-15,.cls-16{fill:#274d7a;}.cls-17{font-size:26.48px;}.cls-18{letter-spacing:0.23em;}.cls-19{letter-spacing:-0.04em;}</style></defs><title>アセット 14</title><g id="レイヤー_2" data-name="レイヤー 2"><g id="header"><rect class="cls-1" width="495" height="322"/><rect class="cls-1" x="505" width="200" height="322"/><circle class="cls-2" cx="361" cy="143" r="112"/><circle class="cls-3" cx="361" cy="177" r="78"/><text class="cls-4" transform="translate(324.16 154.47)">DBCLS</text><rect class="cls-5" x="370.41" y="192.6" width="25.59" height="23.4" rx="4" ry="4"/><rect class="cls-5" x="327.67" y="192.6" width="38.26" height="23.4" rx="4" ry="4"/><g class="cls-6"><path class="cls-7" d="M241,142A111,111,0,1,1,130,31,111,111,0,0,1,241,142Z"/><path class="cls-8" d="M241,142A111,111,0,1,1,130,31,111,111,0,0,1,241,142Z"/></g><g class="cls-9"><circle class="cls-8" cx="608" cy="177" r="78"/><path class="cls-10" d="M608,252a75,75,0,1,1,75-75A75.08,75.08,0,0,1,608,252Z"/></g><text class="cls-11" transform="translate(82 86)">国立遺伝学研究所</text><text class="cls-12" transform="translate(564.84 190)">バイオサイエンス<tspan x="-11.76" y="13">データベースセンター</tspan></text><text class="cls-11" transform="translate(313 81)">データサイエンス<tspan x="0" y="13">共同利用基盤施設</tspan></text><text class="cls-13" transform="translate(228.88 292)">ROIS</text><text class="cls-14" transform="translate(184 307)">情報・システム研究機構</text><text class="cls-13" transform="translate(593.74 292)">JST</text><text class="cls-14" transform="translate(560 307)">科学技術振興機構</text><text class="cls-15" transform="translate(474.33 258)">共同研究</text><rect class="cls-16" x="464" y="236" width="72" height="4"/><polygon class="cls-16" points="454.64 238 466.18 244.66 466.18 231.34 454.64 238"/><polygon class="cls-16" points="542.03 238 530.49 231.34 530.49 244.66 542.03 238"/><text class="cls-15" transform="translate(215.33 258)">協力・連携</text><rect class="cls-16" x="211" y="236" width="72" height="4"/><polygon class="cls-16" points="201.64 238 213.18 244.66 213.18 231.34 201.64 238"/><polygon class="cls-16" points="289.03 238 277.49 231.34 277.49 244.66 289.03 238"/><text class="cls-17" transform="translate(575.14 170.98)">NBDC</text><g class="cls-9"><circle class="cls-8" cx="131" cy="177" r="78"/><path class="cls-10" d="M131,252a75,75,0,1,1,75-75A75.08,75.08,0,0,1,131,252Z"/></g><text class="cls-12" transform="translate(92.6 190)">DDB<tspan class="cls-18" x="27.67" y="0">J</tspan><tspan x="37.52" y="0">センター</tspan></text><text class="cls-19" transform="translate(320.68 170)">ライフサイエンス<tspan x="-23.04" y="13">総合データベースセンター</tspan></text><text class="cls-20" transform="translate(334.12 209)">三島</text><text class="cls-20" transform="translate(376 209)">柏</text><text class="cls-17" transform="translate(102.57 170.98)">DDBJ</text><text class="cls-17" transform="translate(110.67 65.98)">NIG</text><text class="cls-17" transform="translate(346.55 65.98)">DS</text></g></g></svg>