<svg xmlns="http://www.w3.org/2000/svg" viewBox="0 0 12 9"><defs><style>.cls-1{fill:#14274b;}</style></defs><title>アートボード 27-44</title><g id="header"><path class="cls-1" d="M11.41,1.22A1.5,1.5,0,0,0,11.1.56L11,.44A1.5,1.5,0,0,0,9.93,0H2.07A1.51,1.51,0,0,0,1,.44L.9.56a1.49,1.49,0,0,0-.31.66,1.46,1.46,0,0,0,0,.29V7a1.5,1.5,0,0,0,.12.6A1.48,1.48,0,0,0,1,8.09l.1.1a1.51,1.51,0,0,0,1,.35H9.93a1.5,1.5,0,0,0,1-.35l.1-.09a1.51,1.51,0,0,0,.32-.47h0a1.49,1.49,0,0,0,.12-.6V1.51A1.55,1.55,0,0,0,11.41,1.22ZM1.55,1A.73.73,0,0,1,2.07.77H9.93a.73.73,0,0,1,.52.22l.07.08L6.4,4.65a.6.6,0,0,1-.79,0L1.49,1.06ZM1.33,7V1.86l3,2.6-3,2.6A.22.22,0,0,1,1.33,7Zm8.59.74H2.07a.73.73,0,0,1-.36-.1L4.85,4.93l.29.26a1.31,1.31,0,0,0,1.72,0l.29-.26,3.14,2.74A.73.73,0,0,1,9.93,7.76ZM10.67,7a.23.23,0,0,1,0,0l-3-2.6,3-2.6Z"/></g></svg>